<svg width="91" height="108" viewBox="0 0 91 108" fill="none" xmlns="http://www.w3.org/2000/svg">
<path d="M80.7628 11.912L51.13 0.846058C48.059 -0.282019 43.0483 -0.282019 39.9773 0.846058L10.3445 11.912C4.63349 14.0607 0 20.7217 0 26.7918V70.3034C0 74.6546 2.85552 80.4024 6.35758 82.9809L35.9903 105.059C41.2165 108.98 49.783 108.98 55.0092 105.059L84.642 82.9809C88.144 80.3487 90.9995 74.6546 90.9995 70.3034V26.7918C91.0534 20.7217 86.4199 14.0607 80.7628 11.912ZM64.2762 41.994L41.1087 65.0928C40.3006 65.8985 39.2769 66.2746 38.2532 66.2746C37.2295 66.2746 36.2058 65.8985 35.3977 65.0928L26.7772 56.3904C26.0258 55.6323 25.6043 54.6093 25.6043 53.5434C25.6043 52.4775 26.0258 51.4545 26.7772 50.6963C28.3397 49.1385 30.9258 49.1385 32.4883 50.6963L38.3071 56.4979L58.619 36.2462C60.1815 34.6884 62.7676 34.6884 64.33 36.2462C65.8925 37.804 65.8925 40.4362 64.2762 41.994Z" fill="#13395B"/>
</svg>
