<svg width="86" height="86" viewBox="0 0 86 86" fill="none" xmlns="http://www.w3.org/2000/svg">
<path fill-rule="evenodd" clip-rule="evenodd" d="M43 0C19.2898 0 0 19.2898 0 43C0 66.7102 19.2898 86 43 86C66.7102 86 86 66.7102 86 43C86 19.2898 66.7102 0 43 0ZM43 6.45C63.1541 6.45 79.55 22.8459 79.55 43C79.55 63.1541 63.1541 79.55 43 79.55C22.8459 79.55 6.45 63.1541 6.45 43C6.45 22.8459 22.8459 6.45 43 6.45ZM34.5144 25.7987C33.2545 27.0629 33.2631 29.1054 34.523 30.361L47.2166 42.9987L34.523 55.6407C33.2631 56.8963 33.2545 58.9345 34.5144 60.1987C35.1422 60.8351 35.9721 61.149 36.7977 61.149C37.619 61.149 38.4446 60.8351 39.0724 60.2073L54.0665 45.2863C54.6728 44.68 55.0125 43.8587 55.0125 42.9987C55.0125 42.143 54.6728 41.3217 54.0665 40.7154L39.0724 25.7901C37.8125 24.5345 35.7743 24.5345 34.5144 25.7987Z" fill="black"/>
</svg>
