<svg width="51" height="57" viewBox="0 0 51 57" fill="none" xmlns="http://www.w3.org/2000/svg">
<path d="M42.25 0.70575H8.75C4.11583 0.70575 0.375 4.41867 0.375 8.997V39.4541C0.375 44.0324 4.11583 47.7733 8.75 47.7733H10.8717C13.0771 47.7733 15.2267 48.6387 16.79 50.202L21.5638 54.9199C23.7413 57.0695 27.2588 57.0695 29.4363 54.9199L34.21 50.202C35.7733 48.6387 37.9229 47.7733 40.1283 47.7733H42.25C46.8842 47.7733 50.625 44.0324 50.625 39.4541V8.997C50.625 4.41867 46.8842 0.70575 42.25 0.70575ZM25.5 10.6162C28.515 10.6162 30.9438 13.0728 30.9438 16.0599C30.9438 19.0191 28.5987 21.392 25.6954 21.5037H25.2767C23.8659 21.4565 22.5289 20.8618 21.5491 19.8455C20.5694 18.8293 20.0239 17.4715 20.0283 16.0599C20.0562 13.0728 22.485 10.6162 25.5 10.6162ZM33.1771 36.132C28.9617 38.9516 22.0383 38.9516 17.8229 36.132C14.11 33.6753 14.11 29.5995 17.8229 27.1149C22.0662 24.2953 28.9896 24.2953 33.1771 27.1149C36.89 29.5995 36.89 33.6474 33.1771 36.132Z" fill="black"/>
</svg>
