<svg width="64" height="72" viewBox="0 0 64 72" fill="none" xmlns="http://www.w3.org/2000/svg">
<path d="M58.1103 23.7724H46.2241V14.5276C46.2241 10.6746 44.6935 6.97948 41.9691 4.25503C39.2446 1.53058 35.5495 0 31.6965 0C27.8436 0 24.1484 1.53058 21.424 4.25503C18.6995 6.97948 17.169 10.6746 17.169 14.5276V23.7724H5.28276C3.88217 23.774 2.53941 24.3311 1.54905 25.3215C0.55869 26.3118 0.00160179 27.6546 0 29.0552V66.0345C0.00160179 67.435 0.55869 68.7778 1.54905 69.7682C2.53941 70.7585 3.88217 71.3156 5.28276 71.3172H58.1103C59.5109 71.3156 60.8537 70.7585 61.844 69.7682C62.8344 68.7778 63.3915 67.435 63.3931 66.0345V29.0552C63.3915 27.6546 62.8344 26.3118 61.844 25.3215C60.8537 24.3311 59.5109 23.774 58.1103 23.7724ZM22.4517 14.5276C22.4517 12.0757 23.4257 9.72424 25.1595 7.9905C26.8932 6.25676 29.2447 5.28276 31.6965 5.28276C34.1484 5.28276 36.4999 6.25676 38.2336 7.9905C39.9674 9.72424 40.9414 12.0757 40.9414 14.5276V23.7724H22.4517V14.5276Z" fill="black"/>
</svg>
