<svg width="99" height="71" viewBox="0 0 99 71" fill="none" xmlns="http://www.w3.org/2000/svg">
<path d="M92.7002 0H6.30247C4.63222 0.00187229 3.03092 0.666203 1.84988 1.84725C0.668841 3.02829 0.00450894 4.62959 0.00263665 6.29983V21.031C0.00230816 21.0484 0 21.0655 0 21.0831C0 21.1007 0.00230816 21.1178 0.00263665 21.1352V63.8983C0.00450894 65.5685 0.668841 67.1698 1.84988 68.3509C3.03092 69.5319 4.63222 70.1963 6.30247 70.1981H92.7002C94.3704 70.1963 95.9717 69.5319 97.1527 68.3509C98.3338 67.1698 98.9981 65.5685 99 63.8983V6.29983C98.9981 4.62959 98.3338 3.02829 97.1527 1.84725C95.9717 0.666203 94.3704 0.00187229 92.7002 0ZM6.30247 5.39986H92.7002C92.9388 5.40013 93.1675 5.49504 93.3362 5.66375C93.505 5.83247 93.5999 6.06123 93.6001 6.29983V18.3832H5.40249V6.29983C5.40277 6.06123 5.49767 5.83247 5.66639 5.66375C5.83511 5.49504 6.06386 5.40013 6.30247 5.39986ZM92.7002 64.7983H6.30247C6.06386 64.798 5.83511 64.7031 5.66639 64.5344C5.49767 64.3657 5.40277 64.1369 5.40249 63.8983V23.783H93.6001V63.8983C93.5999 64.1369 93.505 64.3657 93.3362 64.5344C93.1675 64.7031 92.9388 64.798 92.7002 64.7983ZM84.5977 53.0986C84.5977 53.8146 84.3132 54.5014 83.8069 55.0077C83.3006 55.514 82.6139 55.7985 81.8978 55.7985H67.4982C66.7821 55.7985 66.0954 55.5141 65.5891 55.0077C65.0827 54.5014 64.7983 53.8147 64.7983 53.0986C64.7983 52.3825 65.0827 51.6958 65.5891 51.1894C66.0954 50.6831 66.7821 50.3987 67.4982 50.3987H81.8978C82.6139 50.3987 83.3006 50.6832 83.8069 51.1895C84.3132 51.6958 84.5977 52.3825 84.5977 53.0986ZM55.7985 53.0986C55.7985 53.8146 55.514 54.5014 55.0077 55.0077C54.5014 55.514 53.8146 55.7985 53.0986 55.7985H45.8988C45.1827 55.7985 44.496 55.5141 43.9896 55.0077C43.4833 54.5014 43.1988 53.8147 43.1988 53.0986C43.1988 52.3825 43.4833 51.6958 43.9896 51.1894C44.496 50.6831 45.1827 50.3987 45.8988 50.3987H53.0986C53.8146 50.3987 54.5014 50.6832 55.0077 51.1895C55.514 51.6958 55.7985 52.3825 55.7985 53.0986Z" fill="black"/>
</svg>
