<svg width="91" height="61" viewBox="0 0 91 61" fill="none" xmlns="http://www.w3.org/2000/svg">
<path d="M31.3984 60.7367C30.8829 60.7373 30.3724 60.6395 29.8962 60.4487C29.42 60.2579 28.9874 59.9779 28.6234 59.6249L1.14977 33.053C0.78529 32.7005 0.496159 32.282 0.298881 31.8215C0.101604 31.3609 4.4436e-05 30.8673 1.45784e-08 30.3688C-4.44069e-05 29.8702 0.101428 29.3766 0.298623 28.916C0.495818 28.4554 0.784874 28.0369 1.14929 27.6843C1.5137 27.3318 1.94633 27.0521 2.42249 26.8613C2.89864 26.6705 3.40899 26.5723 3.92439 26.5722C4.43979 26.5722 4.95016 26.6703 5.42634 26.8611C5.90253 27.0518 6.33522 27.3314 6.69969 27.6839L31.3984 51.5717L83.5703 1.11008C84.3065 0.398955 85.3045 -0.000325501 86.3449 1.99103e-07C87.3854 0.000325899 88.3831 0.400232 89.1189 1.11182C89.8546 1.8234 90.2682 2.78844 90.2686 3.79482C90.269 4.8012 89.8563 5.76656 89.1212 6.47873L34.1738 59.6249C33.8097 59.9779 33.377 60.2578 32.9007 60.4485C32.4245 60.6393 31.9139 60.7372 31.3984 60.7367Z" fill="black"/>
</svg>
