<svg width="129" height="128" viewBox="0 0 129 128" fill="none" xmlns="http://www.w3.org/2000/svg">
<path d="M64.1233 0C51.4409 0 39.0433 3.73518 28.4983 10.7332C17.9533 17.7312 9.73446 27.6778 4.88112 39.3151C0.0277836 50.9524 -1.24207 63.7577 1.23214 76.1118C3.70635 88.4659 9.8135 99.8138 18.7813 108.721C27.7491 117.627 39.1748 123.693 51.6135 126.15C64.0522 128.608 76.9452 127.347 88.6622 122.526C100.379 117.706 110.394 109.543 117.44 99.0697C124.486 88.5964 128.247 76.2832 128.247 63.6871C128.227 46.8022 121.465 30.6145 109.444 18.6751C97.4224 6.73565 81.1238 0.0195152 64.1233 0ZM94.6628 52.5351L58.4875 86.8282C57.5677 87.6973 56.3467 88.1821 55.0771 88.1821C53.8075 88.1821 52.5865 87.6973 51.6667 86.8282L33.5838 69.6816C32.6391 68.7829 32.0922 67.5484 32.0632 66.2494C32.0343 64.9504 32.5256 63.6931 33.4294 62.7537C34.3331 61.8142 35.5754 61.2695 36.8832 61.2391C38.1911 61.2087 39.4576 61.6951 40.4046 62.5915L55.0771 76.5087L87.842 45.445C88.789 44.5486 90.0555 44.0621 91.3634 44.0926C92.6712 44.123 93.9135 44.6677 94.8172 45.6071C95.721 46.5466 96.2123 47.8039 96.1833 49.1029C96.1544 50.4019 95.6075 51.6363 94.6628 52.5351Z" fill="black"/>
</svg>
