<svg width="82" height="93" viewBox="0 0 82 93" fill="none" xmlns="http://www.w3.org/2000/svg">
<path d="M41 45.3617C38.2206 45.3614 35.5378 46.382 33.4614 48.2295C31.3849 50.0771 30.0593 52.6229 29.7364 55.3836C29.4134 58.1442 30.1157 60.9272 31.7097 63.2041C33.3037 65.481 35.6785 67.0932 38.383 67.7344V75.8936C38.383 76.5877 38.6587 77.2533 39.1495 77.7441C39.6403 78.2349 40.3059 78.5106 41 78.5106C41.6941 78.5106 42.3597 78.2349 42.8505 77.7441C43.3413 77.2533 43.617 76.5877 43.617 75.8936V67.7344C46.3215 67.0932 48.6963 65.481 50.2903 63.2041C51.8843 60.9272 52.5866 58.1442 52.2636 55.3836C51.9407 52.6229 50.6151 50.0771 48.5386 48.2295C46.4622 46.382 43.7794 45.3614 41 45.3617ZM41 62.8085C39.7923 62.8085 38.6117 62.4504 37.6075 61.7794C36.6033 61.1084 35.8206 60.1547 35.3584 59.0389C34.8963 57.9231 34.7753 56.6954 35.0109 55.5108C35.2466 54.3263 35.8281 53.2383 36.6821 52.3843C37.5361 51.5303 38.6242 50.9487 39.8087 50.7131C40.9932 50.4775 42.221 50.5984 43.3368 51.0606C44.4526 51.5227 45.4063 52.3054 46.0773 53.3096C46.7483 54.3138 47.1064 55.4944 47.1064 56.7021C47.1046 58.3211 46.4606 59.8732 45.3159 61.018C44.1711 62.1628 42.619 62.8067 41 62.8085ZM75.8936 31.4043H59.3191V18.3191C59.3191 15.9134 58.8453 13.5313 57.9247 11.3087C57.0041 9.08613 55.6547 7.06664 53.9536 5.36555C52.2525 3.66446 50.233 2.31509 48.0104 1.39446C45.7879 0.473839 43.4057 0 41 0C38.5943 0 36.2121 0.473839 33.9896 1.39446C31.767 2.31509 29.7475 3.66446 28.0464 5.36555C26.3453 7.06664 24.9959 9.08613 24.0753 11.3087C23.1547 13.5313 22.6809 15.9134 22.6809 18.3191V31.4043H6.10638C4.48743 31.4061 2.9353 32.05 1.79052 33.1948C0.645746 34.3396 0.0018148 35.8917 0 37.5106V86.3617C0.0018148 87.9807 0.645746 89.5328 1.79052 90.6776C2.9353 91.8223 4.48743 92.4663 6.10638 92.4681H75.8936C77.5126 92.4663 79.0647 91.8223 80.2095 90.6776C81.3543 89.5328 81.9982 87.9807 82 86.3617V37.5106C81.9982 35.8917 81.3543 34.3396 80.2095 33.1948C79.0647 32.05 77.5126 31.4061 75.8936 31.4043ZM27.9149 18.3191C27.9149 16.6008 28.2534 14.8993 28.9109 13.3117C29.5685 11.7241 30.5324 10.2816 31.7474 9.06658C32.9625 7.85152 34.405 6.88768 35.9925 6.23009C37.5801 5.5725 39.2816 5.23404 41 5.23404C42.7184 5.23404 44.4199 5.5725 46.0075 6.23009C47.595 6.88768 49.0375 7.85152 50.2526 9.06658C51.4676 10.2816 52.4315 11.7241 53.0891 13.3117C53.7467 14.8993 54.0851 16.6008 54.0851 18.3191V31.4043H27.9149V18.3191ZM76.766 86.3617C76.7657 86.593 76.6738 86.8147 76.5102 86.9783C76.3467 87.1418 76.1249 87.2338 75.8936 87.234H6.10638C5.87509 87.2338 5.65335 87.1418 5.4898 86.9783C5.32626 86.8147 5.23427 86.593 5.23404 86.3617V37.5106C5.23427 37.2794 5.32626 37.0576 5.4898 36.8941C5.65335 36.7305 5.87509 36.6385 6.10638 36.6383H75.8936C76.1249 36.6385 76.3467 36.7305 76.5102 36.8941C76.6738 37.0576 76.7657 37.2794 76.766 37.5106V86.3617Z" fill="black"/>
</svg>
