<svg width="78" height="85" viewBox="0 0 78 85" fill="none" xmlns="http://www.w3.org/2000/svg">
<path d="M72.1915 6.6383H61.4043V2.48936C61.4043 1.82914 61.142 1.19596 60.6751 0.729117C60.2083 0.262271 59.5751 0 58.9149 0C58.2547 0 57.6215 0.262271 57.1546 0.729117C56.6878 1.19596 56.4255 1.82914 56.4255 2.48936V6.6383H21.5745V2.48936C21.5745 1.82914 21.3122 1.19596 20.8454 0.729117C20.3785 0.262271 19.7453 0 19.0851 0C18.4249 0 17.7917 0.262271 17.3249 0.729117C16.858 1.19596 16.5957 1.82914 16.5957 2.48936V6.6383H5.80851C4.26853 6.64002 2.79211 7.25254 1.70318 8.34148C0.614246 9.43041 0.00172627 10.9068 0 12.4468V78.8298C0.00172627 80.3698 0.614246 81.8462 1.70318 82.9351C2.79211 84.0241 4.26853 84.6366 5.80851 84.6383H72.1915C73.7315 84.6366 75.2079 84.0241 76.2968 82.9351C77.3858 81.8462 77.9983 80.3698 78 78.8298V12.4468C77.9983 10.9068 77.3858 9.43041 76.2968 8.34148C75.2079 7.25254 73.7315 6.64002 72.1915 6.6383ZM5.80851 11.617H16.5957V15.766C16.5957 16.4262 16.858 17.0594 17.3249 17.5262C17.7917 17.993 18.4249 18.2553 19.0851 18.2553C19.7453 18.2553 20.3785 17.993 20.8454 17.5262C21.3122 17.0594 21.5745 16.4262 21.5745 15.766V11.617H56.4255V15.766C56.4255 16.4262 56.6878 17.0594 57.1546 17.5262C57.6215 17.993 58.2547 18.2553 58.9149 18.2553C59.5751 18.2553 60.2083 17.993 60.6751 17.5262C61.142 17.0594 61.4043 16.4262 61.4043 15.766V11.617H72.1915C72.4115 11.6173 72.6224 11.7048 72.7779 11.8604C72.9335 12.0159 73.021 12.2268 73.0213 12.4468V26.5532H4.97872V12.4468C4.97901 12.2268 5.06652 12.0159 5.22208 11.8604C5.37763 11.7048 5.58853 11.6173 5.80851 11.617ZM72.1915 79.6596H5.80851C5.58853 79.6593 5.37763 79.5718 5.22208 79.4162C5.06652 79.2607 4.97901 79.0498 4.97872 78.8298V31.5319H73.0213V78.8298C73.021 79.0498 72.9335 79.2607 72.7779 79.4162C72.6224 79.5718 72.4115 79.6593 72.1915 79.6596Z" fill="black"/>
</svg>
