<svg width="60" height="67" viewBox="0 0 60 67" fill="none" xmlns="http://www.w3.org/2000/svg">
<path d="M37.496 48.2924H30.4352C29.171 48.2924 28.1227 47.2441 28.1227 45.9799C28.1227 44.7158 29.171 43.6674 30.4352 43.6674H37.496C38.1128 43.6362 38.694 43.3692 39.1195 42.9216C39.545 42.474 39.7823 41.88 39.7823 41.2624C39.7823 40.6449 39.545 40.0509 39.1195 39.6033C38.694 39.1557 38.1128 38.8887 37.496 38.8574H30.4352C29.6952 38.8574 28.986 38.4874 28.5543 37.9016C28.3386 37.6024 28.198 37.2558 28.1443 36.8909C28.0907 36.526 28.1255 36.1535 28.246 35.8049L30.5893 28.7441C30.8977 27.7883 31.7918 27.1716 32.7785 27.1716H42.2135C43.4777 27.1716 44.526 28.2199 44.526 29.4841C44.526 30.7483 43.4777 31.7966 42.2135 31.7966H34.4435L33.6418 34.2324H37.496C39.3605 34.2324 41.1486 34.9731 42.467 36.2915C43.7854 37.6099 44.526 39.398 44.526 41.2624C44.526 43.1269 43.7854 44.915 42.467 46.2334C41.1486 47.5518 39.3605 48.2924 37.496 48.2924ZM22.4154 48.2924C21.1513 48.2924 20.1029 47.2441 20.1029 45.9799V35.5274L19.5171 36.2058C18.6538 37.1616 17.2046 37.2233 16.2488 36.3908C15.7983 35.9758 15.5295 35.4 15.5006 34.7883C15.4718 34.1765 15.6852 33.578 16.0946 33.1224L20.7196 27.9733C21.3671 27.2641 22.3846 27.0174 23.2788 27.3566C24.1729 27.6958 24.7588 28.5591 24.7588 29.5149V46.0108C24.7279 47.2749 23.7104 48.2924 22.4154 48.2924Z" fill="black"/>
<path d="M30.0061 6.85245C29.7595 6.85245 29.5128 6.88328 29.2661 6.88328L31.7945 3.73828C32.5961 2.75161 32.442 1.27161 31.4245 0.500779C31.1876 0.312381 30.916 0.172501 30.6251 0.0891303C30.3342 0.00575987 30.0297 -0.0194655 29.729 0.014896C29.4284 0.0492575 29.1374 0.142532 28.8728 0.289389C28.6082 0.436246 28.3752 0.633806 28.187 0.870779L22.1128 8.45578C22.082 8.48661 22.082 8.51745 22.0511 8.57911C21.9586 8.70245 21.897 8.85661 21.8353 8.97995C21.7736 9.13411 21.712 9.25745 21.6811 9.38078C21.6503 9.53495 21.6503 9.65828 21.6503 9.81245V10.4291C21.6811 10.5216 21.7428 10.5833 21.7736 10.6758C21.8353 10.8299 21.897 10.9533 21.9586 11.1074C22.0511 11.2308 22.1436 11.3541 22.267 11.4466C22.3286 11.5391 22.3595 11.6316 22.452 11.6933C22.5136 11.7241 22.5445 11.7549 22.6061 11.7858C22.6678 11.8474 22.7603 11.8783 22.8528 11.9091C23.007 12.0016 23.192 12.0633 23.3461 12.0941C23.4695 12.1558 23.562 12.1558 23.6545 12.1558C23.747 12.1558 23.8086 12.1866 23.9011 12.1866C23.9936 12.1866 24.0553 12.1558 24.117 12.1249C24.2095 12.1249 24.302 12.1558 24.3945 12.1249C26.3678 11.6624 28.2178 11.4466 29.9753 11.4466C43.8195 11.4466 55.0736 22.7008 55.0736 36.5449C55.0736 50.3891 43.8195 61.6433 29.9753 61.6433C16.1311 61.6433 4.87695 50.3891 4.87695 36.5449C4.87695 31.1799 6.63445 25.9999 9.96445 21.5599C10.3324 21.0693 10.4904 20.4526 10.4037 19.8454C10.317 19.2383 9.9926 18.6904 9.50195 18.3224C9.0113 17.9545 8.39457 17.7965 7.78742 17.8832C7.18027 17.9699 6.63244 18.2943 6.26445 18.7849C2.31779 24.0266 0.251953 30.1624 0.251953 36.5449C0.251953 52.9174 13.5719 66.2683 29.9753 66.2683C46.3786 66.2683 59.6986 52.9483 59.6986 36.5449C59.6986 20.1416 46.3786 6.85245 30.0061 6.85245Z" fill="black"/>
</svg>
