<svg width="134" height="110" viewBox="0 0 134 110" fill="none" xmlns="http://www.w3.org/2000/svg">
<path d="M133.502 102.826C133.502 104.729 132.721 106.553 131.33 107.899C129.939 109.244 128.052 110 126.085 110H7.41678C5.44974 110 3.56328 109.244 2.17238 107.899C0.781469 106.553 4.58959e-05 104.729 0 102.826V7.17391C2.93114e-08 5.27127 0.781409 3.44656 2.17232 2.10119C3.56324 0.75582 5.44973 0 7.41678 0C9.38383 0 11.2703 0.75582 12.6612 2.10119C14.0521 3.44656 14.8336 5.27127 14.8336 7.17391V66.378L41.7302 40.362C43.1212 39.0167 45.0077 38.2609 46.9747 38.2609C48.9418 38.2609 50.8283 39.0167 52.2192 40.362L66.7528 54.4197L98.2922 23.913H91.4754C89.5084 23.913 87.6219 23.1572 86.231 21.8119C84.8401 20.4665 84.0586 18.6418 84.0586 16.7391C84.0586 14.8365 84.8401 13.0118 86.231 11.6664C87.6219 10.321 89.5084 9.56522 91.4754 9.56522H116.198C116.207 9.56522 116.216 9.56641 116.225 9.56668C116.46 9.56755 116.695 9.57894 116.929 9.60083C117.042 9.61163 117.152 9.63207 117.264 9.64754C117.392 9.66563 117.52 9.67994 117.647 9.70416C117.772 9.72808 117.893 9.76138 118.015 9.79115C118.127 9.81859 118.24 9.84224 118.351 9.87464C118.47 9.90967 118.585 9.95258 118.7 9.99286C118.813 10.0317 118.926 10.0676 119.037 10.112C119.144 10.1552 119.248 10.2057 119.353 10.2535C119.467 10.3058 119.583 10.3551 119.695 10.4132C119.794 10.4646 119.888 10.5233 119.985 10.579C120.096 10.6429 120.209 10.7042 120.317 10.7743C120.422 10.8417 120.519 10.9167 120.619 10.9891C120.713 11.0566 120.809 11.1199 120.901 11.1923C121.076 11.3321 121.245 11.4804 121.407 11.6348C121.418 11.6459 121.431 11.6553 121.443 11.6664C121.455 11.678 121.464 11.6906 121.476 11.7023C121.636 11.8584 121.789 12.021 121.933 12.1909C122.008 12.2791 122.073 12.3719 122.143 12.4624C122.217 12.5593 122.295 12.6536 122.364 12.7543C122.438 12.8609 122.502 12.9712 122.57 13.0809C122.626 13.1723 122.686 13.2616 122.738 13.3559C122.799 13.4666 122.851 13.5801 122.906 13.6934C122.954 13.7926 123.005 13.8904 123.049 13.9923C123.096 14.1024 123.134 14.2145 123.175 14.326C123.216 14.4354 123.259 14.5431 123.294 14.6546C123.33 14.7673 123.356 14.882 123.385 14.9959C123.414 15.1089 123.447 15.2204 123.471 15.3357C123.498 15.4676 123.514 15.601 123.534 15.7341C123.548 15.8328 123.568 15.93 123.578 16.0298C123.602 16.2668 123.615 16.5045 123.615 16.7421V40.6522C123.615 42.5548 122.833 44.3795 121.442 45.7249C120.052 47.0703 118.165 47.8261 116.198 47.8261C114.231 47.8261 112.344 47.0703 110.954 45.7249C109.563 44.3795 108.781 42.5548 108.781 40.6522V34.0586L71.9973 69.638C70.6063 70.9833 68.7199 71.7391 66.7528 71.7391C64.7858 71.7391 62.8993 70.9833 61.5083 69.638L46.9747 55.5803L14.8336 86.669V95.6522H126.085C128.052 95.6522 129.939 96.4081 131.33 97.7534C132.721 99.0988 133.502 100.923 133.502 102.826Z" fill="black"/>
</svg>
