<svg width="118" height="80" viewBox="0 0 118 80" fill="none" xmlns="http://www.w3.org/2000/svg">
<path d="M117.004 27.3227L105.423 5.87085C104.502 4.18339 102.937 2.91034 101.06 2.32285C99.1828 1.73536 97.143 1.87986 95.3747 2.72556L84.4117 8.02729H76.6951L61.1564 1.22651C59.5177 0.510151 57.6684 0.38371 55.9419 0.869994L33.0218 7.33313L22.4851 2.23735C20.7166 1.39222 18.677 1.248 16.8002 1.83539C14.9235 2.42278 13.3578 3.6954 12.4364 5.38242L0.855413 26.8347C0.392387 27.6927 0.110643 28.6312 0.0266181 29.5956C-0.0574065 30.5599 0.0579716 31.5308 0.36602 32.4516C0.674069 33.3724 1.16862 34.2246 1.82081 34.9585C2.47301 35.6925 3.26979 36.2934 4.16466 36.7263L15.4665 42.1923L40.9091 61.4358C41.7397 62.0657 42.6987 62.5186 43.723 62.7649L71.0156 69.3646C71.6077 69.5077 72.2158 69.58 72.8261 69.5799C74.829 69.5803 76.7506 68.814 78.1712 67.4484L95.4993 50.6871C95.5177 50.6693 95.5342 50.6499 95.5522 50.6317C95.5759 50.6078 95.5988 50.5833 95.6221 50.5587C95.6474 50.5316 95.6743 50.506 95.6989 50.4782L102.737 42.5137L113.695 37.2145C114.59 36.7816 115.386 36.1806 116.039 35.4466C116.691 34.7127 117.185 33.8605 117.493 32.9397C117.801 32.0189 117.917 31.0479 117.833 30.0836C117.749 29.1192 117.467 28.1806 117.004 27.3227ZM92.2344 43.1823L74.3309 30.5879C73.6794 30.1294 72.8931 29.8851 72.0875 29.8908C71.2819 29.8966 70.4994 30.152 69.8549 30.6197L63.8273 34.9924C61.8672 36.403 59.4892 37.1647 57.046 37.1647C54.6029 37.1647 52.2249 36.403 50.2647 34.9924L47.7124 33.1407L66.141 15.3151H75.8627C75.8684 15.3152 75.8742 15.3161 75.8802 15.3161L75.893 15.3151H83.0176L95.852 39.0888L92.2344 43.1823ZM19.1156 8.75568L27.4444 12.7837L15.8634 34.236L7.53462 30.208L19.1156 8.75568ZM72.8432 62.2948L45.5506 55.695L22.2807 38.0945L35.1064 14.3364L58.0509 7.86649L61.6767 9.45345C61.3712 9.6686 61.0826 9.90542 60.8133 10.162L42.3843 27.9875C41.6211 28.7258 41.0307 29.6142 40.6533 30.5924C40.2759 31.5706 40.1202 32.6158 40.1967 33.6573C40.2732 34.6988 40.5802 35.7122 41.0969 36.629C41.6136 37.5457 42.3279 38.3444 43.1914 38.9709L45.7442 40.8226C49.0109 43.1736 52.9742 44.4433 57.046 44.4433C61.1178 44.4433 65.0811 43.1736 68.3479 40.8226L72.1497 38.0648L87.0539 48.5492L72.8432 62.2948ZM110.325 30.6962L101.996 34.7242L90.4149 13.2719L98.7437 9.24408L110.329 30.6937L110.325 30.6962ZM55.0497 76.3238C54.9303 76.7883 54.7173 77.2255 54.423 77.6103C54.1286 77.9951 53.7586 78.3199 53.3343 78.5662C52.9099 78.8125 52.4394 78.9753 51.9499 79.0455C51.4603 79.1156 50.9613 79.0916 50.4813 78.9749L36.2882 75.5431C35.1367 75.263 34.0694 74.7251 33.1721 73.9729L22.5527 65.0441C21.7986 64.4102 21.3358 63.5124 21.266 62.5483C21.1962 61.5842 21.5253 60.6328 22.1807 59.9034C22.8362 59.174 23.7643 58.7263 24.761 58.6588C25.7578 58.5913 26.7414 58.9096 27.4955 59.5436L38.1158 68.4728L52.3089 71.905C52.7889 72.021 53.2405 72.2273 53.638 72.5122C54.0355 72.797 54.3711 73.1549 54.6256 73.5652C54.8801 73.9755 55.0486 74.4304 55.1214 74.9037C55.1941 75.377 55.1698 75.8595 55.0497 76.3238Z" fill="black"/>
</svg>
