<svg width="55" height="53" viewBox="0 0 55 53" fill="none" xmlns="http://www.w3.org/2000/svg">
<path d="M53.0697 22.9491L49.3788 18.8016C48.6732 18.0141 48.1033 16.5441 48.1033 15.4941V11.0316C48.1033 8.24906 45.7422 5.96531 42.8655 5.96531H38.252C37.1936 5.96531 35.6466 5.41406 34.8325 4.73156L30.5446 1.16156C28.672 -0.387187 25.6053 -0.387187 23.7056 1.16156L19.4449 4.75781C18.6307 5.41406 17.0838 5.96531 16.0254 5.96531H11.3304C8.4537 5.96531 6.09263 8.24906 6.09263 11.0316V15.5203C6.09263 16.5441 5.52272 18.0141 4.84425 18.8016L1.18053 22.9753C-0.393511 24.7866 -0.393511 27.7266 1.18053 29.5378L4.84425 33.7116C5.52272 34.4991 6.09263 35.9691 6.09263 36.9928V41.4816C6.09263 44.2641 8.4537 46.5478 11.3304 46.5478H16.0254C17.0838 46.5478 18.6307 47.0991 19.4449 47.7816L23.7328 51.3516C25.6053 52.9003 28.672 52.9003 30.5717 51.3516L34.8596 47.7816C35.6738 47.0991 37.1936 46.5478 38.2791 46.5478H42.8927C45.7694 46.5478 48.1304 44.2641 48.1304 41.4816V37.0191C48.1304 35.9953 48.7003 34.4991 49.406 33.7116L53.0968 29.5641C54.6709 27.7528 54.6709 24.7603 53.0697 22.9491ZM38.4148 21.2953L25.3068 33.9741C24.9252 34.3427 24.4078 34.5498 23.8685 34.5498C23.3291 34.5498 22.8118 34.3427 22.4301 33.9741L15.8626 27.6216C15.484 27.2511 15.2717 26.7512 15.2717 26.2303C15.2717 25.7094 15.484 25.2095 15.8626 24.8391C16.6496 24.0778 17.9522 24.0778 18.7393 24.8391L23.8685 29.8003L35.5381 18.5128C36.3251 17.7516 37.6278 17.7516 38.4148 18.5128C39.2018 19.2741 39.2018 20.5341 38.4148 21.2953Z" fill="black"/>
</svg>
