<svg width="120" height="110" viewBox="0 0 120 110" fill="none" xmlns="http://www.w3.org/2000/svg">
<path d="M118.658 107.669C118.259 108.338 117.686 108.893 116.995 109.279C116.304 109.665 115.521 109.868 114.723 109.868L4.54292 109.867C3.74511 109.867 2.96136 109.664 2.27053 109.278C1.57969 108.892 1.00614 108.337 0.607556 107.668C0.208976 107 -0.000569148 106.242 1.16103e-06 105.47C0.00057147 104.698 0.211237 103.94 0.610804 103.272C9.08771 89.1509 22.6627 78.5593 38.7255 73.5342C31.0301 69.1053 25.0507 62.3554 21.7057 54.3211C18.3607 46.2868 17.835 37.4125 20.2094 29.0612C22.5838 20.7099 27.727 13.3435 34.849 8.09346C41.971 2.8434 50.6779 0 59.6324 0C68.587 0 77.2939 2.8434 84.4159 8.09346C91.5379 13.3435 96.6811 20.7099 99.0555 29.0612C101.43 37.4125 100.904 46.2868 97.5591 54.3211C94.2141 62.3554 88.2347 69.1053 80.5394 73.5342C96.6026 78.5594 110.178 89.1514 118.655 103.273C119.054 103.941 119.265 104.699 119.266 105.471C119.266 106.243 119.057 107.001 118.658 107.669Z" fill="black"/>
</svg>
