<svg width="190" height="111" viewBox="0 0 190 111" fill="none" xmlns="http://www.w3.org/2000/svg">
<path d="M176.538 0H12.6099C9.2667 0.00371353 6.06155 1.29525 3.69757 3.59126C1.33359 5.88728 0.00382345 9.00028 0 12.2473V97.9786C0.00382345 101.226 1.33359 104.339 3.69757 106.635C6.06155 108.931 9.2667 110.222 12.6099 110.226H176.538C179.881 110.222 183.086 108.931 185.45 106.635C187.814 104.339 189.144 101.226 189.148 97.9786V12.2473C189.144 9.00028 187.814 5.88728 185.45 3.59126C183.086 1.29525 179.881 0.00371353 176.538 0ZM52.7719 97.9786L12.6099 64.5439V45.6821L52.7719 12.2473H136.376L176.541 45.6845L176.543 64.5399L136.376 97.9786H52.7719ZM126.099 55.113C126.099 61.1687 124.25 67.0885 120.786 72.1236C117.322 77.1588 112.398 81.0832 106.638 83.4006C100.878 85.7181 94.539 86.3244 88.4238 85.143C82.3087 83.9616 76.6915 81.0455 72.2827 76.7634C67.8739 72.4814 64.8715 67.0257 63.6551 61.0863C62.4387 55.147 63.063 48.9906 65.449 43.3959C67.835 37.8011 71.8756 33.0192 77.0598 29.6548C82.244 26.2904 88.339 24.4947 94.574 24.4947C102.932 24.5039 110.945 27.7328 116.855 33.4728C122.765 39.2129 126.089 46.9953 126.099 55.113Z" fill="black"/>
</svg>
