<svg width="67" height="48" viewBox="0 0 67 48" fill="none" xmlns="http://www.w3.org/2000/svg">
<path d="M61.4689 0H4.72998C3.47641 0.00143366 2.27459 0.500047 1.38819 1.38646C0.501779 2.27286 0.00316547 3.47468 0.00173182 4.72825V14.4023C0.00158701 14.4139 0 14.4251 0 14.4367C0 14.4482 0.00158701 14.4595 0.00173182 14.471V42.5542C0.00316547 43.8078 0.501779 45.0096 1.38819 45.896C2.27459 46.7824 3.47641 47.281 4.72998 47.2825H61.4689C62.7225 47.281 63.9243 46.7824 64.8107 45.896C65.6971 45.0096 66.1957 43.8078 66.1972 42.5542V4.72825C66.1957 3.47468 65.6971 2.27286 64.8107 1.38646C63.9243 0.500047 62.7225 0.00143366 61.4689 0ZM35.4618 37.826H30.7336C30.1066 37.826 29.5053 37.5769 29.0619 37.1335C28.6186 36.6902 28.3695 36.0889 28.3695 35.4619C28.3695 34.8349 28.6186 34.2335 29.0619 33.7902C29.5053 33.3468 30.1066 33.0977 30.7336 33.0977H35.4618C36.0889 33.0977 36.6902 33.3468 37.1335 33.7902C37.5769 34.2335 37.826 34.8349 37.826 35.4619C37.826 36.0889 37.5769 36.6902 37.1335 37.1335C36.6902 37.5769 36.0889 37.826 35.4618 37.826ZM54.3748 37.826H44.9183C44.2913 37.826 43.69 37.5769 43.2467 37.1335C42.8033 36.6902 42.5542 36.0889 42.5542 35.4619C42.5542 34.8349 42.8033 34.2335 43.2467 33.7902C43.69 33.3468 44.2913 33.0977 44.9183 33.0977H54.3748C55.0018 33.0977 55.6032 33.3468 56.0465 33.7902C56.4899 34.2335 56.739 34.8349 56.739 35.4619C56.739 36.0889 56.4899 36.6902 56.0465 37.1335C55.6032 37.5769 55.0018 37.826 54.3748 37.826ZM4.72998 12.0726V4.72825H61.4689L61.4695 12.0726H4.72998Z" fill="black"/>
</svg>
