<svg width="78" height="76" viewBox="0 0 78 76" fill="none" xmlns="http://www.w3.org/2000/svg">
<path d="M77.4942 57.2038C76.8196 62.2789 74.2579 66.943 70.2877 70.3246C66.3174 73.7062 61.2102 75.5741 55.92 75.5793C25.0854 75.5793 0 51.3153 0 21.4904C0.00536262 16.3736 1.93643 11.4336 5.43246 7.59335C8.92849 3.75311 13.7503 1.27528 18.9972 0.622755C20.3325 0.466388 21.6842 0.73258 22.85 1.38148C24.0157 2.03037 24.9328 3.02705 25.4639 4.2223L33.2662 21.8305C33.6709 22.7413 33.8359 23.7349 33.7464 24.7225C33.6569 25.7101 33.3158 26.6608 32.7535 27.4897L26.2937 37.0371L26.2929 37.0378C29.21 42.7744 34.0206 47.407 39.9642 50.2031L49.6893 43.9328C50.5485 43.3767 51.538 43.0373 52.5676 42.9459C53.5972 42.8544 54.634 43.0136 55.5837 43.409L73.7724 50.9489C75.0079 51.4629 76.0382 52.3499 76.7091 53.4775C77.3799 54.605 77.6554 55.9123 77.4942 57.2038ZM48.6782 9.3687C53.4178 10.6014 57.7393 13.0171 61.2097 16.3739C64.6802 19.7307 67.1777 23.9107 68.4521 28.4951C68.6662 29.2635 69.1868 29.9184 69.8995 30.316C70.6122 30.7137 71.4589 30.8216 72.2537 30.6161C73.0486 30.4106 73.7268 29.9086 74.1394 29.22C74.552 28.5315 74.6653 27.7128 74.4546 26.9435C72.8967 21.3394 69.8436 16.2297 65.6012 12.1262C61.3589 8.02277 56.0762 5.06967 50.2823 3.56276C49.487 3.35892 48.6406 3.46857 47.9287 3.86767C47.2169 4.26677 46.6978 4.9227 46.4854 5.69155C46.273 6.4604 46.3845 7.27936 46.7956 7.96873C47.2067 8.65811 47.8838 9.1616 48.6782 9.3687ZM45.4612 20.9817C48.0941 21.6665 50.4948 23.0085 52.4227 24.8733C54.3506 26.738 55.738 29.0601 56.446 31.6068C56.6601 32.3752 57.1807 33.0301 57.8934 33.4277C58.6061 33.8253 59.4528 33.9333 60.2476 33.7278C61.0425 33.5223 61.7207 33.0202 62.1333 32.3317C62.5459 31.6432 62.6592 30.8244 62.4485 30.0552C61.4571 26.4887 59.5141 23.2369 56.8143 20.6254C54.1145 18.014 50.7525 16.1347 47.0653 15.1757C46.27 14.9719 45.4236 15.0815 44.7117 15.4806C43.9999 15.8797 43.4808 16.5357 43.2684 17.3045C43.0559 18.0734 43.1675 18.8923 43.5786 19.5817C43.9897 20.2711 44.6668 20.7746 45.4612 20.9817Z" fill="black"/>
</svg>
