<svg width="87" height="81" viewBox="0 0 87 81" fill="none" xmlns="http://www.w3.org/2000/svg">
<path d="M45.0985 20.1353V38.3501L61.4071 47.4576C61.8021 47.6781 62.1483 47.9718 62.4259 48.3217C62.7035 48.6717 62.9071 49.0711 63.0252 49.4972C63.1432 49.9233 63.1733 50.3677 63.1138 50.805C63.0543 51.2423 62.9063 51.6641 62.6783 52.0461C62.4502 52.4281 62.1467 52.7629 61.7848 53.0315C61.423 53.3 61.0101 53.497 60.5696 53.6111C60.1291 53.7253 59.6696 53.7544 59.2175 53.6969C58.7653 53.6393 58.3293 53.4961 57.9344 53.2756L39.8894 43.1985C39.8619 43.1831 39.8371 43.1649 39.8099 43.1488C39.7508 43.1136 39.6923 43.0782 39.6355 43.0397C39.5906 43.0094 39.548 42.9773 39.5052 42.9453C39.4606 42.9121 39.4165 42.8789 39.3739 42.8437C39.3258 42.8041 39.2798 42.7629 39.2345 42.7212C39.1999 42.6893 39.1654 42.6575 39.1323 42.6243C39.0861 42.5782 39.042 42.5308 38.999 42.4825C38.9687 42.4487 38.939 42.4146 38.9102 42.3796C38.8703 42.3312 38.8324 42.2818 38.7955 42.2315C38.7663 42.1917 38.7379 42.1516 38.7103 42.1105C38.6789 42.0636 38.6493 42.0159 38.6206 41.9677C38.5918 41.9195 38.5641 41.8708 38.5376 41.8212C38.5147 41.7777 38.493 41.7338 38.4721 41.6895C38.4454 41.6334 38.4199 41.5768 38.3964 41.5191C38.3796 41.4775 38.3642 41.4356 38.3489 41.3933C38.3273 41.3332 38.3067 41.2727 38.2887 41.211C38.2756 41.1665 38.2641 41.1216 38.2529 41.0766C38.2383 41.0178 38.2243 40.9589 38.213 40.8989C38.2027 40.8454 38.195 40.7915 38.1874 40.7375C38.1804 40.6858 38.173 40.6343 38.1683 40.5818C38.1622 40.515 38.1598 40.448 38.1577 40.3808C38.1569 40.3502 38.1531 40.3203 38.1531 40.2895V20.1353C38.1531 19.2445 38.5189 18.3901 39.1702 17.7601C39.8215 17.1302 40.7048 16.7763 41.6258 16.7763C42.5468 16.7763 43.4301 17.1302 44.0814 17.7601C44.7327 18.3901 45.0985 19.2445 45.0985 20.1353ZM86.2592 30.2782C86.2914 30.2315 86.3194 30.1831 86.3488 30.1353C86.3774 30.0892 86.4073 30.044 86.4336 29.9965C86.461 29.9472 86.4841 29.8965 86.5086 29.8462C86.5326 29.7972 86.5578 29.7489 86.5794 29.6986C86.6002 29.6496 86.6172 29.5996 86.6356 29.5498C86.6555 29.4962 86.6767 29.4433 86.6939 29.3885C86.7096 29.3385 86.721 29.2878 86.7342 29.2374C86.7488 29.1816 86.7649 29.1265 86.7766 29.0697C86.7884 29.0113 86.7956 28.9524 86.8043 28.8937C86.8115 28.8441 86.8213 28.7953 86.8264 28.745C86.8376 28.6348 86.8438 28.5242 86.8438 28.4136V11.6184C86.8438 10.7276 86.4779 9.87318 85.8266 9.24324C85.1753 8.6133 84.292 8.2594 83.371 8.2594C82.45 8.2594 81.5667 8.6133 80.9154 9.24324C80.2641 9.87318 79.8983 10.7276 79.8983 11.6184V20.3042L71.093 11.7872C65.2662 6.15637 57.8442 2.32292 49.7652 0.771407C41.6863 -0.780109 33.3132 0.0199633 25.7043 3.07049C18.0954 6.12101 11.5924 11.285 7.01716 17.9098C2.44195 24.5345 0 32.3226 0 40.2895C0 48.2564 2.44195 56.0444 7.01716 62.6692C11.5924 69.2939 18.0954 74.458 25.7043 77.5085C33.3132 80.559 41.6863 81.3591 49.7652 79.8076C57.8442 78.2561 65.2662 74.4226 71.093 68.7918C71.4155 68.4799 71.6713 68.1096 71.8458 67.702C72.0203 67.2945 72.1101 66.8577 72.1101 66.4166C72.1101 65.9755 72.0203 65.5387 71.8457 65.1311C71.6712 64.7236 71.4154 64.3533 71.0929 64.0414C70.7704 63.7295 70.3876 63.4821 69.9663 63.3133C69.5449 63.1445 69.0933 63.0576 68.6373 63.0576C68.1812 63.0576 67.7297 63.1445 67.3083 63.3134C66.887 63.4822 66.5042 63.7296 66.1817 64.0415C61.325 68.7392 55.1371 71.9383 48.4007 73.2344C41.6642 74.5305 34.6817 73.8652 28.3361 71.3229C21.9905 68.7805 16.5668 64.4751 12.7509 58.9512C8.93503 53.4273 6.89831 46.933 6.89831 40.2895C6.89831 33.646 8.93503 27.1516 12.7509 21.6277C16.5668 16.1039 21.9905 11.7985 28.3361 9.25612C34.6817 6.71374 41.6642 6.04852 48.4007 7.34459C55.1371 8.64065 61.325 11.8398 66.1817 16.5375L74.9872 25.0545H66.0073C65.0863 25.0545 64.2029 25.4084 63.5517 26.0384C62.9004 26.6683 62.5345 27.5227 62.5345 28.4136C62.5345 29.3044 62.9004 30.1588 63.5517 30.7888C64.2029 31.4187 65.0863 31.7726 66.0073 31.7726H83.3699C83.4848 31.7726 83.5997 31.7668 83.7142 31.7558C83.7638 31.7511 83.8119 31.7421 83.8606 31.7354C83.924 31.7267 83.9872 31.7195 84.0499 31.7075C84.1073 31.6965 84.1629 31.6812 84.2193 31.6674C84.2727 31.6545 84.3265 31.6431 84.3793 31.6277C84.4352 31.6113 84.4891 31.591 84.5438 31.572C84.5959 31.5539 84.6485 31.5373 84.7 31.5167C84.7513 31.4962 84.8005 31.472 84.8505 31.4491C84.903 31.4251 84.9562 31.4025 85.0078 31.3758C85.0563 31.3508 85.1023 31.3222 85.1493 31.295C85.1994 31.266 85.25 31.2386 85.299 31.207C85.3515 31.173 85.4009 31.1353 85.4514 31.0986C85.4914 31.0695 85.5328 31.0425 85.5718 31.0114C85.749 30.8708 85.9115 30.7137 86.057 30.5423C86.0885 30.5049 86.1161 30.4655 86.146 30.4272C86.1841 30.3779 86.2236 30.3296 86.2592 30.2782Z" fill="black"/>
</svg>
